<mxfile host="app.diagrams.net" modified="2024-02-19T14:34:53.747Z" agent="Mozilla/5.0 (Windows NT 10.0; Win64; x64) AppleWebKit/537.36 (KHTML, like Gecko) Chrome/119.0.0.0 Safari/537.36" etag="_hV0WT3Oxu5yb57frBHD" version="23.1.5" type="github">
  <diagram name="Página-1" id="9yMu32MpuAbdIeqK6lV5">
    <mxGraphModel dx="1434" dy="790" grid="1" gridSize="10" guides="1" tooltips="1" connect="1" arrows="1" fold="1" page="1" pageScale="1" pageWidth="827" pageHeight="1169" math="0" shadow="0">
      <root>
        <mxCell id="0" />
        <mxCell id="1" parent="0" />
        <mxCell id="nx1gxkxAw9D206AAHLom-111" style="edgeStyle=orthogonalEdgeStyle;rounded=0;orthogonalLoop=1;jettySize=auto;html=1;entryX=0.5;entryY=0;entryDx=0;entryDy=0;" edge="1" parent="1" source="nx1gxkxAw9D206AAHLom-2" target="nx1gxkxAw9D206AAHLom-94">
          <mxGeometry relative="1" as="geometry" />
        </mxCell>
        <mxCell id="nx1gxkxAw9D206AAHLom-2" value="Inicio&amp;nbsp;" style="strokeWidth=2;html=1;shape=mxgraph.flowchart.start_1;whiteSpace=wrap;" vertex="1" parent="1">
          <mxGeometry x="360" y="15" width="100" height="50" as="geometry" />
        </mxCell>
        <mxCell id="nx1gxkxAw9D206AAHLom-119" style="edgeStyle=orthogonalEdgeStyle;rounded=0;orthogonalLoop=1;jettySize=auto;html=1;entryX=0.5;entryY=0;entryDx=0;entryDy=0;" edge="1" parent="1" source="nx1gxkxAw9D206AAHLom-3" target="nx1gxkxAw9D206AAHLom-4">
          <mxGeometry relative="1" as="geometry" />
        </mxCell>
        <mxCell id="nx1gxkxAw9D206AAHLom-3" value="Analisar piso dois&amp;nbsp;" style="rounded=0;whiteSpace=wrap;html=1;" vertex="1" parent="1">
          <mxGeometry x="345" y="270" width="120" height="60" as="geometry" />
        </mxCell>
        <mxCell id="nx1gxkxAw9D206AAHLom-4" value="&lt;font style=&quot;font-size: 10px;&quot;&gt;Analisar os materiais se estão nos locais corretos&amp;nbsp;&amp;nbsp;&lt;/font&gt;" style="rhombus;whiteSpace=wrap;html=1;" vertex="1" parent="1">
          <mxGeometry x="350" y="360" width="100" height="90" as="geometry" />
        </mxCell>
        <mxCell id="nx1gxkxAw9D206AAHLom-5" value="" style="endArrow=classic;html=1;rounded=0;" edge="1" parent="1" source="nx1gxkxAw9D206AAHLom-4">
          <mxGeometry relative="1" as="geometry">
            <mxPoint x="410" y="405" as="sourcePoint" />
            <mxPoint x="500" y="405" as="targetPoint" />
          </mxGeometry>
        </mxCell>
        <mxCell id="nx1gxkxAw9D206AAHLom-14" value="não" style="edgeLabel;html=1;align=center;verticalAlign=middle;resizable=0;points=[];" vertex="1" connectable="0" parent="nx1gxkxAw9D206AAHLom-5">
          <mxGeometry x="-0.0889" y="-1" relative="1" as="geometry">
            <mxPoint as="offset" />
          </mxGeometry>
        </mxCell>
        <mxCell id="nx1gxkxAw9D206AAHLom-9" value="" style="endArrow=classic;html=1;rounded=0;exitX=0;exitY=0.5;exitDx=0;exitDy=0;entryX=1;entryY=0.5;entryDx=0;entryDy=0;" edge="1" parent="1" source="nx1gxkxAw9D206AAHLom-4" target="nx1gxkxAw9D206AAHLom-18">
          <mxGeometry relative="1" as="geometry">
            <mxPoint x="110" y="450" as="sourcePoint" />
            <mxPoint x="260" y="405" as="targetPoint" />
            <Array as="points" />
          </mxGeometry>
        </mxCell>
        <mxCell id="nx1gxkxAw9D206AAHLom-13" value="sim&amp;nbsp;" style="edgeLabel;html=1;align=center;verticalAlign=middle;resizable=0;points=[];" vertex="1" connectable="0" parent="nx1gxkxAw9D206AAHLom-9">
          <mxGeometry x="0.0222" y="1" relative="1" as="geometry">
            <mxPoint as="offset" />
          </mxGeometry>
        </mxCell>
        <mxCell id="nx1gxkxAw9D206AAHLom-37" style="edgeStyle=orthogonalEdgeStyle;rounded=0;orthogonalLoop=1;jettySize=auto;html=1;" edge="1" parent="1" source="nx1gxkxAw9D206AAHLom-17" target="nx1gxkxAw9D206AAHLom-35">
          <mxGeometry relative="1" as="geometry">
            <Array as="points">
              <mxPoint x="560" y="470" />
              <mxPoint x="430" y="470" />
            </Array>
          </mxGeometry>
        </mxCell>
        <mxCell id="nx1gxkxAw9D206AAHLom-17" value="organizar de acordo com o tipo de material&amp;nbsp;" style="rounded=0;whiteSpace=wrap;html=1;" vertex="1" parent="1">
          <mxGeometry x="500" y="380" width="120" height="60" as="geometry" />
        </mxCell>
        <mxCell id="nx1gxkxAw9D206AAHLom-18" value="manter desta forma e documentar&amp;nbsp;" style="rounded=0;whiteSpace=wrap;html=1;" vertex="1" parent="1">
          <mxGeometry x="140" y="375" width="120" height="60" as="geometry" />
        </mxCell>
        <mxCell id="nx1gxkxAw9D206AAHLom-19" value="material precisa ter um suporte de pallets?&amp;nbsp;" style="rhombus;whiteSpace=wrap;html=1;" vertex="1" parent="1">
          <mxGeometry x="340" y="610" width="110" height="100" as="geometry" />
        </mxCell>
        <mxCell id="nx1gxkxAw9D206AAHLom-22" value="" style="endArrow=classic;html=1;rounded=0;exitX=1;exitY=0.5;exitDx=0;exitDy=0;entryX=0;entryY=0.5;entryDx=0;entryDy=0;" edge="1" parent="1" source="nx1gxkxAw9D206AAHLom-19" target="nx1gxkxAw9D206AAHLom-33">
          <mxGeometry relative="1" as="geometry">
            <mxPoint x="460" y="550" as="sourcePoint" />
            <mxPoint x="580" y="550" as="targetPoint" />
          </mxGeometry>
        </mxCell>
        <mxCell id="nx1gxkxAw9D206AAHLom-26" value="sim&amp;nbsp;" style="edgeLabel;html=1;align=center;verticalAlign=middle;resizable=0;points=[];" vertex="1" connectable="0" parent="nx1gxkxAw9D206AAHLom-22">
          <mxGeometry x="-0.2606" relative="1" as="geometry">
            <mxPoint as="offset" />
          </mxGeometry>
        </mxCell>
        <mxCell id="nx1gxkxAw9D206AAHLom-27" value="" style="endArrow=classic;html=1;rounded=0;entryX=1;entryY=0.5;entryDx=0;entryDy=0;exitX=0;exitY=0.5;exitDx=0;exitDy=0;" edge="1" parent="1" source="nx1gxkxAw9D206AAHLom-19" target="nx1gxkxAw9D206AAHLom-32">
          <mxGeometry relative="1" as="geometry">
            <mxPoint x="340" y="550" as="sourcePoint" />
            <mxPoint x="240" y="550" as="targetPoint" />
          </mxGeometry>
        </mxCell>
        <mxCell id="nx1gxkxAw9D206AAHLom-31" value="não" style="edgeLabel;html=1;align=center;verticalAlign=middle;resizable=0;points=[];" vertex="1" connectable="0" parent="nx1gxkxAw9D206AAHLom-27">
          <mxGeometry x="0.08" y="5" relative="1" as="geometry">
            <mxPoint y="-5" as="offset" />
          </mxGeometry>
        </mxCell>
        <mxCell id="nx1gxkxAw9D206AAHLom-68" style="edgeStyle=orthogonalEdgeStyle;rounded=0;orthogonalLoop=1;jettySize=auto;html=1;entryX=0;entryY=0;entryDx=0;entryDy=0;" edge="1" parent="1" source="nx1gxkxAw9D206AAHLom-32" target="nx1gxkxAw9D206AAHLom-53">
          <mxGeometry relative="1" as="geometry">
            <Array as="points">
              <mxPoint x="205" y="720" />
              <mxPoint x="370" y="720" />
            </Array>
          </mxGeometry>
        </mxCell>
        <mxCell id="nx1gxkxAw9D206AAHLom-32" value="apenas deixar organizado&amp;nbsp;" style="rounded=0;whiteSpace=wrap;html=1;" vertex="1" parent="1">
          <mxGeometry x="150" y="630" width="110" height="60" as="geometry" />
        </mxCell>
        <mxCell id="nx1gxkxAw9D206AAHLom-69" style="edgeStyle=orthogonalEdgeStyle;rounded=0;orthogonalLoop=1;jettySize=auto;html=1;entryX=1;entryY=0;entryDx=0;entryDy=0;" edge="1" parent="1" source="nx1gxkxAw9D206AAHLom-33" target="nx1gxkxAw9D206AAHLom-53">
          <mxGeometry relative="1" as="geometry">
            <Array as="points">
              <mxPoint x="630" y="710" />
              <mxPoint x="420" y="710" />
            </Array>
          </mxGeometry>
        </mxCell>
        <mxCell id="nx1gxkxAw9D206AAHLom-33" value="colocar os materiais em cima do pallets&amp;nbsp;" style="rounded=0;whiteSpace=wrap;html=1;" vertex="1" parent="1">
          <mxGeometry x="570" y="630" width="120" height="60" as="geometry" />
        </mxCell>
        <mxCell id="nx1gxkxAw9D206AAHLom-35" value="material precisa ser identificado?" style="rhombus;whiteSpace=wrap;html=1;" vertex="1" parent="1">
          <mxGeometry x="350" y="490" width="100" height="90" as="geometry" />
        </mxCell>
        <mxCell id="nx1gxkxAw9D206AAHLom-36" style="edgeStyle=orthogonalEdgeStyle;rounded=0;orthogonalLoop=1;jettySize=auto;html=1;entryX=0.16;entryY=0.333;entryDx=0;entryDy=0;entryPerimeter=0;" edge="1" parent="1" target="nx1gxkxAw9D206AAHLom-35">
          <mxGeometry relative="1" as="geometry">
            <mxPoint x="200" y="440" as="sourcePoint" />
            <Array as="points">
              <mxPoint x="200" y="470" />
              <mxPoint x="366" y="470" />
            </Array>
          </mxGeometry>
        </mxCell>
        <mxCell id="nx1gxkxAw9D206AAHLom-38" value="" style="endArrow=classic;html=1;rounded=0;exitX=1;exitY=0.5;exitDx=0;exitDy=0;" edge="1" parent="1" source="nx1gxkxAw9D206AAHLom-35">
          <mxGeometry relative="1" as="geometry">
            <mxPoint x="450" y="540" as="sourcePoint" />
            <mxPoint x="560" y="535" as="targetPoint" />
          </mxGeometry>
        </mxCell>
        <mxCell id="nx1gxkxAw9D206AAHLom-42" value="sim&amp;nbsp;" style="edgeLabel;html=1;align=center;verticalAlign=middle;resizable=0;points=[];" vertex="1" connectable="0" parent="nx1gxkxAw9D206AAHLom-38">
          <mxGeometry x="-0.15" y="-4" relative="1" as="geometry">
            <mxPoint as="offset" />
          </mxGeometry>
        </mxCell>
        <mxCell id="nx1gxkxAw9D206AAHLom-43" value="" style="endArrow=classic;html=1;rounded=0;exitX=0;exitY=0.5;exitDx=0;exitDy=0;" edge="1" parent="1" source="nx1gxkxAw9D206AAHLom-35">
          <mxGeometry relative="1" as="geometry">
            <mxPoint x="100" y="580" as="sourcePoint" />
            <mxPoint x="270" y="535" as="targetPoint" />
          </mxGeometry>
        </mxCell>
        <mxCell id="nx1gxkxAw9D206AAHLom-47" value="não" style="edgeLabel;html=1;align=center;verticalAlign=middle;resizable=0;points=[];" vertex="1" connectable="0" parent="nx1gxkxAw9D206AAHLom-43">
          <mxGeometry x="-0.125" y="-2" relative="1" as="geometry">
            <mxPoint as="offset" />
          </mxGeometry>
        </mxCell>
        <mxCell id="nx1gxkxAw9D206AAHLom-52" style="edgeStyle=orthogonalEdgeStyle;rounded=0;orthogonalLoop=1;jettySize=auto;html=1;entryX=1;entryY=0;entryDx=0;entryDy=0;" edge="1" parent="1" source="nx1gxkxAw9D206AAHLom-48" target="nx1gxkxAw9D206AAHLom-19">
          <mxGeometry relative="1" as="geometry">
            <Array as="points">
              <mxPoint x="620" y="590" />
              <mxPoint x="423" y="590" />
            </Array>
          </mxGeometry>
        </mxCell>
        <mxCell id="nx1gxkxAw9D206AAHLom-48" value="colocar etiquetas nos materiais&amp;nbsp;" style="rounded=0;whiteSpace=wrap;html=1;" vertex="1" parent="1">
          <mxGeometry x="560" y="505" width="120" height="60" as="geometry" />
        </mxCell>
        <mxCell id="nx1gxkxAw9D206AAHLom-51" style="edgeStyle=orthogonalEdgeStyle;rounded=0;orthogonalLoop=1;jettySize=auto;html=1;entryX=0;entryY=0;entryDx=0;entryDy=0;" edge="1" parent="1" source="nx1gxkxAw9D206AAHLom-49" target="nx1gxkxAw9D206AAHLom-19">
          <mxGeometry relative="1" as="geometry">
            <Array as="points">
              <mxPoint x="220" y="580" />
              <mxPoint x="368" y="580" />
            </Array>
          </mxGeometry>
        </mxCell>
        <mxCell id="nx1gxkxAw9D206AAHLom-49" value="deixar junto com os demais&amp;nbsp;" style="rounded=0;whiteSpace=wrap;html=1;" vertex="1" parent="1">
          <mxGeometry x="160" y="505" width="120" height="60" as="geometry" />
        </mxCell>
        <mxCell id="nx1gxkxAw9D206AAHLom-53" value="Materiais antigos e abertos?" style="rhombus;whiteSpace=wrap;html=1;" vertex="1" parent="1">
          <mxGeometry x="345" y="739.5" width="100" height="95" as="geometry" />
        </mxCell>
        <mxCell id="nx1gxkxAw9D206AAHLom-87" style="edgeStyle=orthogonalEdgeStyle;rounded=0;orthogonalLoop=1;jettySize=auto;html=1;entryX=1;entryY=0;entryDx=0;entryDy=0;" edge="1" parent="1" source="nx1gxkxAw9D206AAHLom-54" target="nx1gxkxAw9D206AAHLom-70">
          <mxGeometry relative="1" as="geometry">
            <Array as="points">
              <mxPoint x="604" y="840" />
              <mxPoint x="421" y="840" />
            </Array>
          </mxGeometry>
        </mxCell>
        <mxCell id="nx1gxkxAw9D206AAHLom-54" value="reaproveitar e armazenar de forma correta, para que o material não perca a umidade&amp;nbsp;&amp;nbsp;" style="rounded=0;whiteSpace=wrap;html=1;" vertex="1" parent="1">
          <mxGeometry x="540" y="748.5" width="134" height="77" as="geometry" />
        </mxCell>
        <mxCell id="nx1gxkxAw9D206AAHLom-55" value="" style="endArrow=classic;html=1;rounded=0;exitX=1;exitY=0.5;exitDx=0;exitDy=0;entryX=0;entryY=0.5;entryDx=0;entryDy=0;" edge="1" parent="1" source="nx1gxkxAw9D206AAHLom-53" target="nx1gxkxAw9D206AAHLom-54">
          <mxGeometry relative="1" as="geometry">
            <mxPoint x="440" y="790" as="sourcePoint" />
            <mxPoint x="540" y="790" as="targetPoint" />
          </mxGeometry>
        </mxCell>
        <mxCell id="nx1gxkxAw9D206AAHLom-61" value="sim" style="edgeLabel;html=1;align=center;verticalAlign=middle;resizable=0;points=[];" vertex="1" connectable="0" parent="nx1gxkxAw9D206AAHLom-55">
          <mxGeometry x="-0.0303" y="-2" relative="1" as="geometry">
            <mxPoint as="offset" />
          </mxGeometry>
        </mxCell>
        <mxCell id="nx1gxkxAw9D206AAHLom-62" value="" style="endArrow=classic;html=1;rounded=0;exitX=0;exitY=0.5;exitDx=0;exitDy=0;entryX=1;entryY=0.5;entryDx=0;entryDy=0;entryPerimeter=0;" edge="1" parent="1" source="nx1gxkxAw9D206AAHLom-53" target="nx1gxkxAw9D206AAHLom-67">
          <mxGeometry relative="1" as="geometry">
            <mxPoint x="250" y="860" as="sourcePoint" />
            <mxPoint x="280" y="790" as="targetPoint" />
          </mxGeometry>
        </mxCell>
        <mxCell id="nx1gxkxAw9D206AAHLom-66" value="não" style="edgeLabel;html=1;align=center;verticalAlign=middle;resizable=0;points=[];" vertex="1" connectable="0" parent="nx1gxkxAw9D206AAHLom-62">
          <mxGeometry x="0.0217" y="4" relative="1" as="geometry">
            <mxPoint y="-6" as="offset" />
          </mxGeometry>
        </mxCell>
        <mxCell id="nx1gxkxAw9D206AAHLom-67" value="perfeito!!!" style="rounded=0;whiteSpace=wrap;html=1;" vertex="1" parent="1">
          <mxGeometry x="160" y="760" width="120" height="60" as="geometry" />
        </mxCell>
        <mxCell id="nx1gxkxAw9D206AAHLom-70" value="validade?&amp;nbsp;" style="rhombus;whiteSpace=wrap;html=1;" vertex="1" parent="1">
          <mxGeometry x="342.5" y="860" width="105" height="100" as="geometry" />
        </mxCell>
        <mxCell id="nx1gxkxAw9D206AAHLom-71" value="" style="endArrow=classic;html=1;rounded=0;exitX=1;exitY=0.5;exitDx=0;exitDy=0;" edge="1" parent="1" source="nx1gxkxAw9D206AAHLom-70">
          <mxGeometry relative="1" as="geometry">
            <mxPoint x="450" y="910" as="sourcePoint" />
            <mxPoint x="560" y="910" as="targetPoint" />
          </mxGeometry>
        </mxCell>
        <mxCell id="nx1gxkxAw9D206AAHLom-75" value="sim" style="edgeLabel;html=1;align=center;verticalAlign=middle;resizable=0;points=[];" vertex="1" connectable="0" parent="nx1gxkxAw9D206AAHLom-71">
          <mxGeometry x="-0.12" y="-1" relative="1" as="geometry">
            <mxPoint as="offset" />
          </mxGeometry>
        </mxCell>
        <mxCell id="nx1gxkxAw9D206AAHLom-80" style="edgeStyle=orthogonalEdgeStyle;rounded=0;orthogonalLoop=1;jettySize=auto;html=1;" edge="1" parent="1" source="nx1gxkxAw9D206AAHLom-76" target="nx1gxkxAw9D206AAHLom-79">
          <mxGeometry relative="1" as="geometry" />
        </mxCell>
        <mxCell id="nx1gxkxAw9D206AAHLom-76" value="dentro da validade&amp;nbsp;" style="rounded=0;whiteSpace=wrap;html=1;" vertex="1" parent="1">
          <mxGeometry x="560" y="880" width="120" height="60" as="geometry" />
        </mxCell>
        <mxCell id="nx1gxkxAw9D206AAHLom-81" style="edgeStyle=orthogonalEdgeStyle;rounded=0;orthogonalLoop=1;jettySize=auto;html=1;entryX=0.5;entryY=0;entryDx=0;entryDy=0;" edge="1" parent="1" source="nx1gxkxAw9D206AAHLom-77" target="nx1gxkxAw9D206AAHLom-78">
          <mxGeometry relative="1" as="geometry" />
        </mxCell>
        <mxCell id="nx1gxkxAw9D206AAHLom-77" value="fora da validade&amp;nbsp;" style="rounded=0;whiteSpace=wrap;html=1;" vertex="1" parent="1">
          <mxGeometry x="150" y="880" width="120" height="60" as="geometry" />
        </mxCell>
        <mxCell id="nx1gxkxAw9D206AAHLom-78" value="efetuar o descarte correto&amp;nbsp;" style="rounded=0;whiteSpace=wrap;html=1;" vertex="1" parent="1">
          <mxGeometry x="150" y="1000" width="120" height="60" as="geometry" />
        </mxCell>
        <mxCell id="nx1gxkxAw9D206AAHLom-79" value="deixar marcado em um local visível para que possa ser usado o mais rápido possivel&amp;nbsp;" style="rounded=0;whiteSpace=wrap;html=1;" vertex="1" parent="1">
          <mxGeometry x="565" y="995" width="130" height="70" as="geometry" />
        </mxCell>
        <mxCell id="nx1gxkxAw9D206AAHLom-82" value="" style="endArrow=classic;html=1;rounded=0;exitX=0;exitY=0.5;exitDx=0;exitDy=0;entryX=1;entryY=0.5;entryDx=0;entryDy=0;" edge="1" parent="1" source="nx1gxkxAw9D206AAHLom-70" target="nx1gxkxAw9D206AAHLom-77">
          <mxGeometry relative="1" as="geometry">
            <mxPoint x="300" y="990" as="sourcePoint" />
            <mxPoint x="460" y="990" as="targetPoint" />
          </mxGeometry>
        </mxCell>
        <mxCell id="nx1gxkxAw9D206AAHLom-86" value="não" style="edgeLabel;html=1;align=center;verticalAlign=middle;resizable=0;points=[];" vertex="1" connectable="0" parent="nx1gxkxAw9D206AAHLom-82">
          <mxGeometry x="-0.1034" y="3" relative="1" as="geometry">
            <mxPoint x="1" y="-3" as="offset" />
          </mxGeometry>
        </mxCell>
        <mxCell id="nx1gxkxAw9D206AAHLom-90" value="fim" style="strokeWidth=2;html=1;shape=mxgraph.flowchart.start_1;whiteSpace=wrap;" vertex="1" parent="1">
          <mxGeometry x="345" y="1065" width="100" height="60" as="geometry" />
        </mxCell>
        <mxCell id="nx1gxkxAw9D206AAHLom-91" style="edgeStyle=orthogonalEdgeStyle;rounded=0;orthogonalLoop=1;jettySize=auto;html=1;entryX=0.24;entryY=0.1;entryDx=0;entryDy=0;entryPerimeter=0;" edge="1" parent="1" source="nx1gxkxAw9D206AAHLom-78" target="nx1gxkxAw9D206AAHLom-90">
          <mxGeometry relative="1" as="geometry">
            <mxPoint x="352" y="1067.98" as="targetPoint" />
          </mxGeometry>
        </mxCell>
        <mxCell id="nx1gxkxAw9D206AAHLom-92" style="edgeStyle=orthogonalEdgeStyle;rounded=0;orthogonalLoop=1;jettySize=auto;html=1;entryX=0.855;entryY=0.145;entryDx=0;entryDy=0;entryPerimeter=0;" edge="1" parent="1" source="nx1gxkxAw9D206AAHLom-79" target="nx1gxkxAw9D206AAHLom-90">
          <mxGeometry relative="1" as="geometry">
            <mxPoint x="449" y="1070.98" as="targetPoint" />
          </mxGeometry>
        </mxCell>
        <mxCell id="nx1gxkxAw9D206AAHLom-112" style="edgeStyle=orthogonalEdgeStyle;rounded=0;orthogonalLoop=1;jettySize=auto;html=1;entryX=0.5;entryY=0;entryDx=0;entryDy=0;" edge="1" parent="1" source="nx1gxkxAw9D206AAHLom-94" target="nx1gxkxAw9D206AAHLom-96">
          <mxGeometry relative="1" as="geometry" />
        </mxCell>
        <mxCell id="nx1gxkxAw9D206AAHLom-94" value="analisar estrutura de armazenagem" style="rounded=0;whiteSpace=wrap;html=1;" vertex="1" parent="1">
          <mxGeometry x="350" y="90" width="120" height="40" as="geometry" />
        </mxCell>
        <mxCell id="nx1gxkxAw9D206AAHLom-96" value="estrutura esta adequada?&amp;nbsp;" style="rhombus;whiteSpace=wrap;html=1;" vertex="1" parent="1">
          <mxGeometry x="360" y="165" width="90" height="90" as="geometry" />
        </mxCell>
        <mxCell id="nx1gxkxAw9D206AAHLom-97" value="" style="endArrow=classic;html=1;rounded=0;exitX=1;exitY=0.5;exitDx=0;exitDy=0;entryX=0;entryY=0.5;entryDx=0;entryDy=0;" edge="1" parent="1" source="nx1gxkxAw9D206AAHLom-96" target="nx1gxkxAw9D206AAHLom-107">
          <mxGeometry relative="1" as="geometry">
            <mxPoint x="320" y="140" as="sourcePoint" />
            <mxPoint x="440" y="140" as="targetPoint" />
          </mxGeometry>
        </mxCell>
        <mxCell id="nx1gxkxAw9D206AAHLom-101" value="sim&amp;nbsp;" style="edgeLabel;html=1;align=center;verticalAlign=middle;resizable=0;points=[];" vertex="1" connectable="0" parent="nx1gxkxAw9D206AAHLom-97">
          <mxGeometry x="-0.1273" y="-2" relative="1" as="geometry">
            <mxPoint as="offset" />
          </mxGeometry>
        </mxCell>
        <mxCell id="nx1gxkxAw9D206AAHLom-102" value="" style="endArrow=classic;html=1;rounded=0;exitX=0;exitY=0.5;exitDx=0;exitDy=0;entryX=1;entryY=0.5;entryDx=0;entryDy=0;" edge="1" parent="1" source="nx1gxkxAw9D206AAHLom-96" target="nx1gxkxAw9D206AAHLom-108">
          <mxGeometry relative="1" as="geometry">
            <mxPoint x="50" y="210" as="sourcePoint" />
            <mxPoint x="160" y="140" as="targetPoint" />
          </mxGeometry>
        </mxCell>
        <mxCell id="nx1gxkxAw9D206AAHLom-106" value="não" style="edgeLabel;html=1;align=center;verticalAlign=middle;resizable=0;points=[];" vertex="1" connectable="0" parent="nx1gxkxAw9D206AAHLom-102">
          <mxGeometry x="-0.0154" y="3" relative="1" as="geometry">
            <mxPoint as="offset" />
          </mxGeometry>
        </mxCell>
        <mxCell id="nx1gxkxAw9D206AAHLom-116" style="edgeStyle=orthogonalEdgeStyle;rounded=0;orthogonalLoop=1;jettySize=auto;html=1;entryX=1;entryY=0.75;entryDx=0;entryDy=0;" edge="1" parent="1" source="nx1gxkxAw9D206AAHLom-107" target="nx1gxkxAw9D206AAHLom-3">
          <mxGeometry relative="1" as="geometry">
            <Array as="points">
              <mxPoint x="614" y="290" />
              <mxPoint x="508" y="290" />
              <mxPoint x="508" y="310" />
              <mxPoint x="465" y="310" />
            </Array>
          </mxGeometry>
        </mxCell>
        <mxCell id="nx1gxkxAw9D206AAHLom-107" value="manter da mesma forma&amp;nbsp;" style="rounded=0;whiteSpace=wrap;html=1;" vertex="1" parent="1">
          <mxGeometry x="554" y="180" width="120" height="60" as="geometry" />
        </mxCell>
        <mxCell id="nx1gxkxAw9D206AAHLom-118" style="edgeStyle=orthogonalEdgeStyle;rounded=0;orthogonalLoop=1;jettySize=auto;html=1;entryX=0;entryY=0.75;entryDx=0;entryDy=0;" edge="1" parent="1" source="nx1gxkxAw9D206AAHLom-108" target="nx1gxkxAw9D206AAHLom-3">
          <mxGeometry relative="1" as="geometry">
            <Array as="points">
              <mxPoint x="210" y="280" />
              <mxPoint x="306" y="280" />
              <mxPoint x="306" y="300" />
              <mxPoint x="345" y="300" />
            </Array>
          </mxGeometry>
        </mxCell>
        <mxCell id="nx1gxkxAw9D206AAHLom-108" value="projetar uma estrutura de acordo com o layout" style="rounded=0;whiteSpace=wrap;html=1;" vertex="1" parent="1">
          <mxGeometry x="150" y="180" width="120" height="60" as="geometry" />
        </mxCell>
      </root>
    </mxGraphModel>
  </diagram>
</mxfile>
